<svg width="20" height="20" viewBox="0 0 20 20" fill="none" xmlns="http://www.w3.org/2000/svg">
<path d="M19.2744 4.75814L10.2617 0.501049C10.1748 0.460461 10.0798 0.439966 9.9838 0.441083C9.88782 0.442201 9.79333 0.464902 9.70732 0.507505C9.62132 0.550107 9.546 0.611519 9.48696 0.687188C9.42791 0.762857 9.38665 0.850843 9.36624 0.944626C9.36415 0.951579 8.64317 4.30274 7.57246 7.64348C7.20745 8.78857 6.79864 9.92046 6.37175 10.9147L7.52936 11.4612C8.91988 8.23375 10.0212 3.77851 10.4356 1.99656L18.2691 5.69188C18.0285 6.74381 17.4118 9.32323 16.5865 11.8985C16.0533 13.5671 15.4289 15.2337 14.7893 16.4399C14.1705 17.6845 13.428 18.2963 13.2618 18.2142C12.2745 18.2351 11.5806 17.3368 11.1134 16.1855C10.9169 15.6789 10.7641 15.1565 10.6566 14.6239C10.5677 14.1942 10.5405 13.9245 10.5385 13.9245C10.5274 13.8158 10.4882 13.7119 10.4248 13.6229C10.3615 13.5339 10.276 13.4629 10.1769 13.4169L1.16632 9.16193C1.06366 9.1135 0.949998 9.09313 0.836908 9.1029C0.723818 9.11267 0.615336 9.15223 0.522504 9.21755C0.430212 9.28347 0.357107 9.37275 0.310681 9.47623C0.264256 9.57971 0.246179 9.69367 0.258305 9.80644C0.263867 9.83842 0.393881 11.0927 0.916718 12.4046C1.27965 13.3224 1.89495 14.3639 2.89543 14.8902L11.9033 19.1522L11.9074 19.1438C12.2982 19.3489 12.7417 19.4824 13.2611 19.4887C14.5105 19.4073 15.1918 18.329 15.9156 17.0379C18.0014 13.0818 19.6144 5.49651 19.6269 5.4687C19.6578 5.32826 19.6399 5.18151 19.5762 5.0526C19.5125 4.92369 19.4068 4.82033 19.2765 4.75953L19.2744 4.75814Z" fill="white"/>
</svg>
